<svg version="1.1" xmlns="http://www.w3.org/2000/svg" xmlns:xlink="http://www.w3.org/1999/xlink" width="1468.530029296875" height="113.11000061035156"><defs></defs><g transform="translate(738.010009765625,60.8699951171875)"><rect fill="rgb(255,255,255)" stroke="none" x="0" y="0" width="1468.530029296875" height="113.11000061035156" fill-opacity="0" transform="translate(-738.010009765625,-60.8699951171875)"></rect><g transform="translate(NaN,NaN) rotate(0,0,0) translate(NaN,NaN) matrix(1,0,0,1,NaN,NaN)"><path fill="rgb(252,247,247)" fill-opacity="1" d="M-734.90 47.80L-709.83-21.07Q-709.26-22.47-708.46-25.01Q-707.67-27.55-706.94-30.56Q-706.21-33.58-705.67-36.85Q-705.13-40.12-705.13-42.97L-705.13-42.97Q-705.13-44.88-705.42-46.53Q-705.70-48.18-706.40-49.35Q-707.10-50.53-708.21-51.23Q-709.32-51.92-710.97-51.92L-710.97-51.92Q-713.76-51.92-716.84-50.11Q-719.92-48.31-723.16-44.56Q-726.39-40.82-729.73-35.07Q-733.06-29.33-736.30-21.52L-736.30-21.52L-738.01-22.66Q-734.52-31.29-730.93-37.32Q-727.35-43.35-723.70-47.13Q-720.05-50.91-716.40-52.62Q-712.75-54.34-709.13-54.34L-709.13-54.34Q-705.64-54.34-703.32-53.00Q-701.00-51.67-699.67-49.35Q-698.34-47.04-697.80-43.96Q-697.26-40.88-697.26-37.39L-697.26-37.39Q-697.26-35.55-697.51-33.29Q-697.77-31.04-698.27-28.63L-698.27-28.63Q-694.59-34.91-691.26-39.74Q-687.93-44.56-684.63-47.80Q-681.33-51.04-677.93-52.69Q-674.53-54.34-670.66-54.34L-670.66-54.34Q-667.17-54.34-664.03-53.19Q-660.89-52.05-658.54-49.86Q-656.19-47.67-654.82-44.37Q-653.46-41.07-653.46-36.82L-653.46-36.82Q-653.46-34.72-653.78-32.75Q-654.09-30.79-654.73-28.75L-654.73-28.75Q-651.05-35.04-647.71-39.83Q-644.38-44.62-641.11-47.83Q-637.84-51.04-634.45-52.69Q-631.05-54.34-627.18-54.34L-627.18-54.34Q-623.75-54.34-620.67-53.19Q-617.60-52.05-615.28-49.86Q-612.96-47.67-611.60-44.37Q-610.23-41.07-610.23-36.82L-610.23-36.82Q-610.23-31.93-611.98-26.12Q-613.72-20.31-616.33-13.93Q-618.93-7.55-621.94-0.89Q-624.96 5.78-627.56 12.38Q-630.16 18.98-631.91 25.30Q-633.65 31.61-633.65 37.20L-633.65 37.20Q-633.65 41.70-631.62 44.43Q-629.59 47.16-625.09 47.16L-625.09 47.16Q-620.90 47.16-617.02 45.20Q-613.15 43.23-609.34 39.32Q-605.53 35.42-601.57 29.58Q-597.60 23.74-593.22 16.00L-593.22 16.00L-589.92 10.16L-588.21 11.36L-591.51 17.20Q-596.27 25.64-600.52 31.87Q-604.77 38.09-608.93 42.18Q-613.09 46.27-617.40 48.27Q-621.72 50.27-626.67 50.27L-626.67 50.27Q-631.12 50.27-634.23 49.19Q-637.34 48.12-639.30 46.12Q-641.27 44.12-642.16 41.29Q-643.05 38.47-643.05 34.98L-643.05 34.98Q-643.05 30.60-642.03 25.71Q-641.02 20.82-639.34 15.62Q-637.65 10.41-635.53 5.05Q-633.40-0.32-631.15-5.59Q-628.89-10.85-626.77-15.87Q-624.64-20.88-622.96-25.39Q-621.28-29.90-620.26-33.74Q-619.25-37.58-619.25-40.56L-619.25-40.56Q-619.25-45.96-621.82-48.59Q-624.39-51.23-628.58-51.23L-628.58-51.23Q-632.13-51.23-635.46-49.19Q-638.80-47.16-642.22-43.20Q-645.65-39.23-649.37-33.42Q-653.08-27.61-657.33-20.06L-657.33-20.06L-658.54-17.90L-682.34 47.80L-691.74 47.80L-672.63-5.01Q-670.66-10.41-668.79-15.55Q-666.92-20.69-665.46-25.26Q-664.00-29.83-663.08-33.71Q-662.16-37.58-662.16-40.56L-662.16-40.56Q-662.16-45.96-664.92-48.94Q-667.68-51.92-672.06-51.92L-672.06-51.92Q-675.61-51.92-678.95-49.77Q-682.28-47.61-685.71-43.54Q-689.13-39.48-692.78-33.61Q-696.43-27.74-700.69-20.31L-700.69-20.31L-725.51 47.80L-734.90 47.80ZM-590.17 10.73L-590.17 10.73Q-587.89 3.87-584.71-1.75Q-581.54-7.36-577.83-11.74Q-574.11-16.12-570.02-19.30Q-565.93-22.47-561.83-24.53Q-557.74-26.60-553.77-27.61Q-549.80-28.63-546.31-28.63L-546.31-28.63Q-542.69-28.63-540.28-27.52Q-537.87-26.41-536.38-24.41Q-534.89-22.41-534.25-19.58Q-533.62-16.76-533.62-13.33L-533.62-13.33L-516.35-60.87L-506.96-60.87L-535.27 17.01Q-536.15 19.49-537.04 22.09Q-537.93 24.69-538.60 27.17Q-539.27 29.64-539.68 31.96Q-540.09 34.28-540.09 36.25L-540.09 36.25Q-540.09 40.63-537.77 43.23Q-535.46 45.83-530.57 45.83L-530.57 45.83Q-526.32 45.83-522.32 44.02Q-518.32 42.21-514.41 38.50Q-510.51 34.79-506.57 29.17Q-502.64 23.55-498.45 16.00L-498.45 16.00L-495.21 10.16L-493.50 11.36L-496.80 17.20Q-501.43 25.39-505.65 31.39Q-509.88 37.39-514.06 41.29Q-518.25 45.20-522.63 47.10Q-527.01 49.00-531.97 49.00L-531.97 49.00Q-535.84 49.00-538.79 47.83Q-541.74 46.66-543.74 44.50Q-545.74 42.34-546.76 39.29Q-547.77 36.25-547.77 32.50L-547.77 32.50Q-547.77 30.02-547.33 27.14Q-546.88 24.25-545.99 21.14L-545.99 21.14Q-554.31 35.10-562.43 42.05Q-570.56 49.00-578.94 49.00L-578.94 49.00Q-582.87 49.00-585.63 47.58Q-588.40 46.15-590.17 43.58Q-591.95 41.01-592.78 37.55Q-593.60 34.09-593.60 29.96L-593.60 29.96Q-593.60 25.52-592.71 20.60Q-591.82 15.68-590.17 10.73ZM-576.65 45.83L-576.65 45.83Q-573.23 45.83-569.67 44.02Q-566.12 42.21-562.59 39.07Q-559.07 35.93-555.77 31.71Q-552.47 27.49-549.52 22.69Q-546.56 17.90-544.09 12.82Q-541.61 7.74-539.80 2.82Q-538.00-2.09-537.01-6.57Q-536.03-11.04-536.03-14.60L-536.03-14.60Q-536.03-17.84-536.82-20.03Q-537.61-22.22-538.92-23.58Q-540.22-24.95-541.90-25.52Q-543.58-26.09-545.36-26.09L-545.36-26.09Q-548.91-26.09-553.26-23.90Q-557.61-21.71-562.12-17.23Q-566.62-12.76-570.97-5.94Q-575.32 0.89-578.94 10.09L-578.94 10.09Q-581.92 17.77-583.41 24.31Q-584.90 30.85-584.90 35.23L-584.90 35.23Q-584.90 40.18-582.91 43.01Q-580.91 45.83-576.65 45.83ZM-360.45-13.52L-362.04-15.49Q-358.29-19.17-355.28-23.20Q-352.26-27.23-350.14-31.17Q-348.01-35.10-346.87-38.72Q-345.73-42.34-345.73-45.32L-345.73-45.32Q-345.73-46.59-345.98-47.80Q-346.23-49.00-346.90-49.92Q-347.57-50.84-348.68-51.38Q-349.79-51.92-351.50-51.92L-351.50-51.92Q-355.12-51.92-358.83-49.45Q-362.55-46.97-365.97-42.28L-365.97-42.28Q-368.64-38.66-370.83-34.12Q-373.02-29.58-375.05-24.44Q-377.08-19.30-379.05-13.71Q-381.02-8.13-383.24-2.41L-383.24-2.41Q-386.35 5.59-389.43 12.25Q-392.51 18.92-395.71 24.31Q-398.92 29.71-402.25 33.86Q-405.58 38.02-409.20 41.07L-409.20 41.07Q-406.15 41.96-402.44 42.88Q-398.73 43.80-394.67 44.56Q-390.60 45.32-386.41 45.83Q-382.22 46.34-378.10 46.34L-378.10 46.34Q-370.80 46.34-365.34 44.50Q-359.88 42.66-355.37 38.88Q-350.87 35.10-346.84 29.42Q-342.81 23.74-338.43 16.00L-338.43 16.00L-335.19 10.16L-333.47 11.36L-336.77 17.20Q-342.81 27.87-348.45 34.69Q-354.10 41.51-359.53 45.42Q-364.96 49.32-370.26 50.78Q-375.56 52.24-380.89 52.24L-380.89 52.24Q-384.51 52.24-388.60 51.61Q-392.70 50.97-396.98 49.92Q-401.27 48.88-405.71 47.54Q-410.15 46.21-414.47 44.88L-414.47 44.88Q-419.17 47.67-424.25 48.97Q-429.32 50.27-435.16 50.27L-435.16 50.27Q-439.16 50.27-441.67 49.73Q-444.18 49.19-445.64 48.31Q-447.10 47.42-447.64 46.27Q-448.18 45.13-448.18 43.99L-448.18 43.99Q-448.18 41.70-446.72 40.31Q-445.26 38.91-443.03 38.12Q-440.81 37.32-438.15 37.04Q-435.48 36.75-433.07 36.75L-433.07 36.75Q-427.80 36.75-423.07 37.61Q-418.34 38.47-414.34 39.55L-414.34 39.55Q-412.38 37.26-410.44 34.21Q-408.50 31.17-406.44 27.20Q-404.38 23.23-402.16 18.25Q-399.93 13.27-397.40 7.17L-397.40 7.17Q-393.40-2.35-390.19-10.44Q-386.98-18.54-383.94-25.14Q-380.89-31.74-377.75-36.98Q-374.61-42.21-370.67-46.02L-370.67-46.02Q-366.29-50.27-361.53-52.30Q-356.77-54.34-352.33-54.34L-352.33-54.34Q-349.34-54.34-347.34-53.51Q-345.34-52.69-344.17-51.26Q-343.00-49.83-342.52-47.92Q-342.04-46.02-342.04-43.80L-342.04-43.80Q-342.04-36.31-346.77-28.66Q-351.50-21.01-360.45-13.52L-360.45-13.52ZM-435.10 47.99L-435.10 47.99Q-429.83 47.99-425.90 47.04Q-421.96 46.08-418.53 43.54L-418.53 43.54Q-420.63 42.91-422.94 42.24Q-425.26 41.58-427.74 41.04Q-430.21 40.50-432.72 40.15Q-435.23 39.80-437.64 39.80L-437.64 39.80Q-441.38 39.80-443.51 40.78Q-445.64 41.77-445.64 43.99L-445.64 43.99Q-445.64 44.81-445.22 45.54Q-444.81 46.27-443.67 46.81Q-442.53 47.35-440.46 47.67Q-438.40 47.99-435.10 47.99ZM-337.66 17.01L-321.48-27.42L-312.08-27.42L-328.27 17.01Q-329.16 19.49-330.05 22.06Q-330.94 24.63-331.60 27.14Q-332.27 29.64-332.68 31.96Q-333.09 34.28-333.09 36.25L-333.09 36.25Q-333.09 40.63-330.78 43.23Q-328.46 45.83-323.57 45.83L-323.57 45.83Q-319.32 45.83-315.35 43.99Q-311.38 42.15-307.48 38.44Q-303.58 34.72-299.64 29.10Q-295.71 23.49-291.45 16.00L-291.45 16.00L-288.15 10.16L-286.44 11.36L-289.74 17.20Q-294.37 25.39-298.59 31.39Q-302.81 37.39-307.04 41.29Q-311.26 45.20-315.64 47.10Q-320.02 49.00-324.97 49.00L-324.97 49.00Q-328.84 49.00-331.79 47.83Q-334.74 46.66-336.74 44.50Q-338.74 42.34-339.76 39.29Q-340.77 36.25-340.77 32.50L-340.77 32.50Q-340.77 29.20-339.98 25.26Q-339.19 21.33-337.66 17.01L-337.66 17.01ZM-316.40-44.05L-316.40-44.05Q-316.40-46.27-314.84-47.86Q-313.29-49.45-311.07-49.45L-311.07-49.45Q-308.85-49.45-307.29-47.89Q-305.73-46.34-305.73-44.12L-305.73-44.12Q-305.73-43.04-306.15-42.05Q-306.56-41.07-307.29-40.37Q-308.02-39.67-309.00-39.26Q-309.99-38.85-311.13-38.85L-311.13-38.85Q-313.35-38.85-314.88-40.34Q-316.40-41.83-316.40-44.05ZM-288.41 10.73L-288.41 10.73Q-286.12 3.87-282.95-1.75Q-279.77-7.36-276.06-11.74Q-272.35-16.12-268.25-19.30Q-264.16-22.47-260.06-24.53Q-255.97-26.60-252.00-27.61Q-248.03-28.63-244.54-28.63L-244.54-28.63Q-240.93-28.63-238.51-27.52Q-236.10-26.41-234.61-24.41Q-233.12-22.41-232.48-19.58Q-231.85-16.76-231.85-13.33L-231.85-13.33L-226.71-27.42L-217.31-27.42L-233.50 17.01Q-234.39 19.49-235.28 22.06Q-236.16 24.63-236.83 27.14Q-237.50 29.64-237.91 31.96Q-238.32 34.28-238.32 36.25L-238.32 36.25Q-238.32 40.63-236.01 43.23Q-233.69 45.83-228.80 45.83L-228.80 45.83Q-224.55 45.83-220.55 44.02Q-216.55 42.21-212.65 38.50Q-208.74 34.79-204.81 29.17Q-200.87 23.55-196.68 16.00L-196.68 16.00L-193.44 10.16L-191.73 11.36L-195.03 17.20Q-199.67 25.45-203.89 31.45Q-208.11 37.45-212.30 41.35Q-216.49 45.26-220.87 47.13Q-225.25 49.00-230.20 49.00L-230.20 49.00Q-234.07 49.00-237.02 47.83Q-239.97 46.66-241.97 44.50Q-243.97 42.34-244.99 39.29Q-246.00 36.25-246.00 32.50L-246.00 32.50Q-246.00 30.02-245.56 27.14Q-245.11 24.25-244.23 21.14L-244.23 21.14Q-252.54 35.10-260.67 42.05Q-268.79 49.00-277.17 49.00L-277.17 49.00Q-281.11 49.00-283.87 47.58Q-286.63 46.15-288.41 43.58Q-290.18 41.01-291.01 37.55Q-291.83 34.09-291.83 29.96L-291.83 29.96Q-291.83 25.52-290.94 20.60Q-290.06 15.68-288.41 10.73ZM-274.89 45.83L-274.89 45.83Q-271.46 45.83-267.90 44.02Q-264.35 42.21-260.83 39.07Q-257.30 35.93-254.00 31.71Q-250.70 27.49-247.75 22.69Q-244.80 17.90-242.32 12.82Q-239.85 7.74-238.04 2.82Q-236.23-2.09-235.24-6.57Q-234.26-11.04-234.26-14.60L-234.26-14.60Q-234.26-17.84-235.05-20.03Q-235.85-22.22-237.15-23.58Q-238.45-24.95-240.13-25.52Q-241.81-26.09-243.59-26.09L-243.59-26.09Q-247.15-26.09-251.49-23.90Q-255.84-21.71-260.35-17.23Q-264.86-12.76-269.20-5.94Q-273.55 0.89-277.17 10.09L-277.17 10.09Q-280.15 17.77-281.65 24.31Q-283.14 30.85-283.14 35.23L-283.14 35.23Q-283.14 40.18-281.14 43.01Q-279.14 45.83-274.89 45.83ZM-158.22-60.87L-180.37-0.13Q-175.42-8.57-171.29-14.28Q-167.17-20.00-163.33-23.42Q-159.48-26.85-155.64-28.31Q-151.80-29.77-147.42-29.77L-147.42-29.77Q-140.19-29.77-136.35-26.41Q-132.51-23.04-132.51-16.69L-132.51-16.69Q-132.51-11.36-135.14-6.98Q-137.78-2.60-142.73 0.63L-142.73 0.63Q-144.31 1.65-146.19 2.54Q-148.06 3.43-150.47 4.32Q-152.88 5.21-155.93 6.13Q-158.98 7.05-162.91 8.00L-162.91 8.00L-162.91 8.25Q-155.10 8.76-150.95 11.74Q-146.79 14.73-146.79 19.30L-146.79 19.30Q-146.79 21.33-147.49 23.52Q-148.19 25.71-149.04 27.99Q-149.90 30.28-150.60 32.60Q-151.30 34.91-151.30 37.13L-151.30 37.13Q-151.30 41.01-148.82 43.42Q-146.35 45.83-141.52 45.83L-141.52 45.83Q-137.65 45.83-133.84 44.05Q-130.03 42.28-126.16 38.63Q-122.29 34.98-118.26 29.36Q-114.23 23.74-109.85 16.00L-109.85 16.00L-106.55 10.16L-104.83 11.36L-108.13 17.20Q-113.34 26.41-117.78 32.53Q-122.22 38.66-126.51 42.31Q-130.79 45.96-135.11 47.48Q-139.43 49.00-144.38 49.00L-144.38 49.00Q-147.30 49.00-149.96 48.46Q-152.63 47.92-154.66 46.66Q-156.69 45.39-157.90 43.23Q-159.10 41.07-159.10 37.83L-159.10 37.83Q-159.10 35.29-158.44 32.66Q-157.77 30.02-156.98 27.52Q-156.18 25.01-155.52 22.66Q-154.85 20.31-154.85 18.28L-154.85 18.28Q-154.85 14.35-158.02 11.68Q-161.20 9.01-167.86 8.82L-167.86 8.82L-167.86 8.51Q-161.20 6.67-155.90 3.94Q-150.60 1.21-146.98-2.03L-146.98-2.03Q-139.93-8.44-139.93-17.08L-139.93-17.08Q-139.93-27.36-149.46-27.36L-149.46-27.36Q-153.20-27.36-156.79-25.61Q-160.37-23.87-164.44-19.46Q-168.50-15.04-173.35-7.55Q-178.21-0.06-184.49 11.36L-184.49 11.36L-197.82 47.80L-207.22 47.80L-167.67-60.87L-158.22-60.87ZM-107.05 10.92L-107.05 10.92Q-104.83 2.41-100.55-4.82Q-96.26-12.06-90.71-17.36Q-85.15-22.66-78.65-25.64Q-72.14-28.63-65.54-28.63L-65.54-28.63Q-60.21-28.63-56.56-26.82Q-52.91-25.01-50.69-21.96Q-48.46-18.92-47.51-14.92Q-46.56-10.92-46.56-6.54L-46.56-6.54Q-46.56-1.78-47.48 2.98Q-48.40 7.74-49.86 12.06L-49.86 12.06Q-52.59 20.06-56.91 26.82Q-61.22 33.58-66.52 38.53Q-71.82 43.48-77.79 46.24Q-83.76 49.00-89.72 49.00L-89.72 49.00Q-94.23 49.00-97.82 47.39Q-101.40 45.77-103.88 42.72Q-106.35 39.67-107.69 35.26Q-109.02 30.85-109.02 25.33L-109.02 25.33Q-109.02 21.84-108.51 18.19Q-108.01 14.54-107.05 10.92ZM-88.77 45.83L-88.77 45.83Q-84.20 45.83-79.47 43.23Q-74.74 40.63-70.33 35.96Q-65.92 31.29-62.11 24.82Q-58.30 18.34-55.57 10.60L-55.57 10.60Q-54.81 8.51-54.08 5.90Q-53.35 3.30-52.72 0.48Q-52.08-2.35-51.70-5.30Q-51.32-8.25-51.32-11.04L-51.32-11.04Q-51.32-14.09-51.89-16.85Q-52.46-19.61-53.83-21.65Q-55.19-23.68-57.51-24.88Q-59.83-26.09-63.25-26.09L-63.25-26.09Q-68.21-26.09-73.06-23.45Q-77.92-20.82-82.27-16.03Q-86.61-11.24-90.17-4.57Q-93.72 2.09-96.07 10.16L-96.07 10.16Q-97.66 15.55-98.52 20.98Q-99.37 26.41-99.37 30.85L-99.37 30.85Q-99.37 45.83-88.77 45.83ZM-33.93-24.88L-33.93-27.42L-15.39-27.42L-9.36-44.05L0.03-44.05L-6.00-27.42L13.04-27.42L13.04-24.88L-6.95-24.88L-22.19 17.01Q-23.07 19.49-23.93 22.09Q-24.79 24.69-25.45 27.20Q-26.12 29.71-26.53 32.02Q-26.95 34.34-26.95 36.25L-26.95 36.25Q-26.95 40.63-24.57 43.23Q-22.19 45.83-17.36 45.83L-17.36 45.83Q-12.66 45.83-8.22 44.05Q-3.78 42.28 0.54 38.59Q4.86 34.91 9.11 29.29Q13.36 23.68 17.68 16.00L17.68 16.00L20.98 10.16L22.69 11.36L19.39 17.20Q14.38 26.09 9.68 32.15Q4.98 38.21 0.38 41.96Q-4.22 45.70-8.95 47.35Q-13.68 49.00-18.76 49.00L-18.76 49.00Q-22.63 49.00-25.61 47.83Q-28.60 46.66-30.60 44.50Q-32.60 42.34-33.64 39.29Q-34.69 36.25-34.69 32.50L-34.69 32.50Q-34.69 29.20-33.93 25.26Q-33.17 21.33-31.58 17.01L-31.58 17.01L-16.35-24.88L-33.93-24.88ZM71.13 47.80L96.20-21.07Q96.77-22.47 97.56-25.01Q98.36-27.55 99.09-30.56Q99.82-33.58 100.36-36.85Q100.90-40.12 100.90-42.97L100.90-42.97Q100.90-44.88 100.61-46.53Q100.32-48.18 99.63-49.35Q98.93-50.53 97.82-51.23Q96.71-51.92 95.06-51.92L95.06-51.92Q92.26-51.92 89.18-50.11Q86.11-48.31 82.87-44.56Q79.63-40.82 76.30-35.07Q72.97-29.33 69.73-21.52L69.73-21.52L68.02-22.66Q71.51-31.29 75.09-37.32Q78.68-43.35 82.33-47.13Q85.98-50.91 89.63-52.62Q93.28-54.34 96.90-54.34L96.90-54.34Q100.39-54.34 102.71-53.00Q105.02-51.67 106.35-49.35Q107.69-47.04 108.23-43.96Q108.77-40.88 108.77-37.39L108.77-37.39Q108.77-35.55 108.51-33.29Q108.26-31.04 107.75-28.63L107.75-28.63Q111.43-34.91 114.77-39.74Q118.10-44.56 121.40-47.80Q124.70-51.04 128.10-52.69Q131.49-54.34 135.36-54.34L135.36-54.34Q138.85-54.34 142.00-53.19Q145.14-52.05 147.49-49.86Q149.84-47.67 151.20-44.37Q152.57-41.07 152.57-36.82L152.57-36.82Q152.57-34.72 152.25-32.75Q151.93-30.79 151.30-28.75L151.30-28.75Q154.98-35.04 158.31-39.83Q161.64-44.62 164.91-47.83Q168.18-51.04 171.58-52.69Q174.97-54.34 178.85-54.34L178.85-54.34Q182.27-54.34 185.35-53.19Q188.43-52.05 190.75-49.86Q193.06-47.67 194.43-44.37Q195.79-41.07 195.79-36.82L195.79-36.82Q195.79-31.93 194.05-26.12Q192.30-20.31 189.70-13.93Q187.10-7.55 184.08-0.89Q181.07 5.78 178.46 12.38Q175.86 18.98 174.12 25.30Q172.37 31.61 172.37 37.20L172.37 37.20Q172.37 41.70 174.40 44.43Q176.43 47.16 180.94 47.16L180.94 47.16Q185.13 47.16 189.00 45.20Q192.87 43.23 196.68 39.32Q200.49 35.42 204.46 29.58Q208.43 23.74 212.81 16.00L212.81 16.00L216.11 10.16L217.82 11.36L214.52 17.20Q209.76 25.64 205.51 31.87Q201.25 38.09 197.09 42.18Q192.94 46.27 188.62 48.27Q184.30 50.27 179.35 50.27L179.35 50.27Q174.91 50.27 171.80 49.19Q168.69 48.12 166.72 46.12Q164.75 44.12 163.86 41.29Q162.98 38.47 162.98 34.98L162.98 34.98Q162.98 30.60 163.99 25.71Q165.01 20.82 166.69 15.62Q168.37 10.41 170.50 5.05Q172.62-0.32 174.88-5.59Q177.13-10.85 179.26-15.87Q181.38-20.88 183.07-25.39Q184.75-29.90 185.76-33.74Q186.78-37.58 186.78-40.56L186.78-40.56Q186.78-45.96 184.21-48.59Q181.64-51.23 177.45-51.23L177.45-51.23Q173.89-51.23 170.56-49.19Q167.23-47.16 163.80-43.20Q160.37-39.23 156.66-33.42Q152.95-27.61 148.69-20.06L148.69-20.06L147.49-17.90L123.68 47.80L114.29 47.80L133.40-5.01Q135.36-10.41 137.24-15.55Q139.11-20.69 140.57-25.26Q142.03-29.83 142.95-33.71Q143.87-37.58 143.87-40.56L143.87-40.56Q143.87-45.96 141.11-48.94Q138.35-51.92 133.97-51.92L133.97-51.92Q130.41-51.92 127.08-49.77Q123.75-47.61 120.32-43.54Q116.89-39.48 113.24-33.61Q109.59-27.74 105.34-20.31L105.34-20.31L80.52 47.80L71.13 47.80ZM215.85 10.73L215.85 10.73Q218.14 3.87 221.31-1.75Q224.48-7.36 228.20-11.74Q231.91-16.12 236.01-19.30Q240.10-22.47 244.19-24.53Q248.29-26.60 252.26-27.61Q256.22-28.63 259.71-28.63L259.71-28.63Q263.33-28.63 265.74-27.52Q268.16-26.41 269.65-24.41Q271.14-22.41 271.77-19.58Q272.41-16.76 272.41-13.33L272.41-13.33L277.55-27.42L286.95-27.42L270.76 17.01Q269.87 19.49 268.98 22.06Q268.09 24.63 267.43 27.14Q266.76 29.64 266.35 31.96Q265.94 34.28 265.94 36.25L265.94 36.25Q265.94 40.63 268.25 43.23Q270.57 45.83 275.46 45.83L275.46 45.83Q279.71 45.83 283.71 44.02Q287.71 42.21 291.61 38.50Q295.52 34.79 299.45 29.17Q303.39 23.55 307.58 16.00L307.58 16.00L310.81 10.16L312.53 11.36L309.23 17.20Q304.59 25.45 300.37 31.45Q296.15 37.45 291.96 41.35Q287.77 45.26 283.39 47.13Q279.01 49.00 274.06 49.00L274.06 49.00Q270.19 49.00 267.24 47.83Q264.28 46.66 262.29 44.50Q260.29 42.34 259.27 39.29Q258.25 36.25 258.25 32.50L258.25 32.50Q258.25 30.02 258.70 27.14Q259.14 24.25 260.03 21.14L260.03 21.14Q251.72 35.10 243.59 42.05Q235.47 49.00 227.09 49.00L227.09 49.00Q223.15 49.00 220.39 47.58Q217.63 46.15 215.85 43.58Q214.07 41.01 213.25 37.55Q212.42 34.09 212.42 29.96L212.42 29.96Q212.42 25.52 213.31 20.60Q214.20 15.68 215.85 10.73ZM229.37 45.83L229.37 45.83Q232.80 45.83 236.35 44.02Q239.91 42.21 243.43 39.07Q246.96 35.93 250.26 31.71Q253.56 27.49 256.51 22.69Q259.46 17.90 261.94 12.82Q264.41 7.74 266.22 2.82Q268.03-2.09 269.01-6.57Q270.00-11.04 270.00-14.60L270.00-14.60Q270.00-17.84 269.20-20.03Q268.41-22.22 267.11-23.58Q265.81-24.95 264.13-25.52Q262.44-26.09 260.67-26.09L260.67-26.09Q257.11-26.09 252.76-23.90Q248.42-21.71 243.91-17.23Q239.40-12.76 235.05-5.94Q230.71 0.89 227.09 10.09L227.09 10.09Q224.10 17.77 222.61 24.31Q221.12 30.85 221.12 35.23L221.12 35.23Q221.12 40.18 223.12 43.01Q225.12 45.83 229.37 45.83ZM305.80-24.88L305.80-27.42L324.33-27.42L330.36-44.05L339.76-44.05L333.73-27.42L352.77-27.42L352.77-24.88L332.78-24.88L317.54 17.01Q316.65 19.49 315.80 22.09Q314.94 24.69 314.27 27.20Q313.61 29.71 313.19 32.02Q312.78 34.34 312.78 36.25L312.78 36.25Q312.78 40.63 315.16 43.23Q317.54 45.83 322.37 45.83L322.37 45.83Q327.06 45.83 331.51 44.05Q335.95 42.28 340.27 38.59Q344.58 34.91 348.84 29.29Q353.09 23.68 357.40 16.00L357.40 16.00L360.71 10.16L362.42 11.36L359.12 17.20Q354.10 26.09 349.41 32.15Q344.71 38.21 340.11 41.96Q335.51 45.70 330.78 47.35Q326.05 49.00 320.97 49.00L320.97 49.00Q317.10 49.00 314.11 47.83Q311.13 46.66 309.13 44.50Q307.13 42.34 306.08 39.29Q305.04 36.25 305.04 32.50L305.04 32.50Q305.04 29.20 305.80 25.26Q306.56 21.33 308.15 17.01L308.15 17.01L323.38-24.88L305.80-24.88ZM358.17 17.01L374.35-27.42L383.75-27.42L367.56 17.01Q366.67 19.49 365.78 22.06Q364.90 24.63 364.23 27.14Q363.56 29.64 363.15 31.96Q362.74 34.28 362.74 36.25L362.74 36.25Q362.74 40.63 365.09 43.23Q367.43 45.83 372.26 45.83L372.26 45.83Q376.51 45.83 380.51 43.99Q384.51 42.15 388.41 38.44Q392.32 34.72 396.25 29.14Q400.19 23.55 404.38 16.00L404.38 16.00L407.49 10.41L421.33-27.42L430.72-27.42L414.53 17.01Q413.65 19.49 412.76 22.06Q411.87 24.63 411.20 27.14Q410.53 29.64 410.12 31.96Q409.71 34.28 409.71 36.25L409.71 36.25Q409.71 40.63 412.03 43.23Q414.34 45.83 419.23 45.83L419.23 45.83Q423.48 45.83 427.45 43.99Q431.42 42.15 435.32 38.44Q439.23 34.72 443.16 29.10Q447.10 23.49 451.35 16.00L451.35 16.00L454.65 10.16L456.30 11.36L453.06 17.20Q448.49 25.45 444.27 31.45Q440.05 37.45 435.83 41.35Q431.61 45.26 427.20 47.13Q422.79 49.00 417.83 49.00L417.83 49.00Q413.96 49.00 411.01 47.83Q408.06 46.66 406.06 44.50Q404.06 42.34 403.04 39.29Q402.03 36.25 402.03 32.50L402.03 32.50Q402.03 30.02 402.47 27.14Q402.92 24.25 403.81 21.20L403.81 21.20Q399.55 28.37 395.62 33.61Q391.68 38.85 387.75 42.28Q383.81 45.70 379.65 47.35Q375.50 49.00 370.86 49.00L370.86 49.00Q366.99 49.00 364.04 47.83Q361.09 46.66 359.09 44.50Q357.09 42.34 356.07 39.29Q355.06 36.25 355.06 32.50L355.06 32.50Q355.06 29.20 355.85 25.26Q356.64 21.33 358.17 17.01L358.17 17.01ZM489.88-60.87L468.23-1.40Q476.42-15.04 484.45-21.84Q492.48-28.63 500.80-28.63L500.80-28.63Q504.67-28.63 507.46-27.20Q510.26-25.77 512.03-23.20Q513.81-20.63 514.64-17.14Q515.46-13.65 515.46-9.58L515.46-9.58Q515.46-5.14 514.57-0.25Q513.68 4.63 512.03 9.65L512.03 9.65Q509.69 16.50 506.51 22.09Q503.34 27.68 499.62 32.06Q495.91 36.44 491.85 39.64Q487.79 42.85 483.69 44.91Q479.60 46.97 475.63 47.99Q471.66 49.00 468.17 49.00L468.17 49.00Q463.47 49.00 459.89 47.83Q456.30 46.66 453.89 44.50Q451.48 42.34 450.24 39.29Q449.00 36.25 449.00 32.50L449.00 32.50Q449.00 29.20 449.79 25.26Q450.59 21.33 452.11 17.01L452.11 17.01L480.42-60.87L489.88-60.87ZM498.77-25.45L498.77-25.45Q495.34-25.45 491.72-23.55Q488.10-21.65 484.52-18.34Q480.93-15.04 477.47-10.66Q474.01-6.28 470.90-1.36Q467.79 3.55 465.19 8.79Q462.59 14.03 460.71 19.01Q458.84 23.99 457.76 28.44Q456.68 32.88 456.68 36.25L456.68 36.25Q456.68 41.01 459.22 43.74Q461.76 46.46 467.16 46.46L467.16 46.46Q469.82 46.46 473.73 45.00Q477.63 43.54 482.10 39.58Q486.58 35.61 491.37 28.53Q496.16 21.46 500.67 10.22L500.67 10.22Q503.72 2.60 505.24-3.65Q506.77-9.90 506.77-14.47L506.77-14.47Q506.77-19.80 504.80-22.63Q502.83-25.45 498.77-25.45ZM568.46-60.87L546.82-1.40Q555.01-15.04 563.04-21.84Q571.07-28.63 579.38-28.63L579.38-28.63Q583.25-28.63 586.05-27.20Q588.84-25.77 590.62-23.20Q592.40-20.63 593.22-17.14Q594.05-13.65 594.05-9.58L594.05-9.58Q594.05-5.14 593.16-0.25Q592.27 4.63 590.62 9.65L590.62 9.65Q588.27 16.50 585.10 22.09Q581.92 27.68 578.21 32.06Q574.49 36.44 570.43 39.64Q566.37 42.85 562.28 44.91Q558.18 46.97 554.21 47.99Q550.25 49.00 546.76 49.00L546.76 49.00Q542.06 49.00 538.47 47.83Q534.89 46.66 532.47 44.50Q530.06 42.34 528.82 39.29Q527.59 36.25 527.59 32.50L527.59 32.50Q527.59 29.20 528.38 25.26Q529.17 21.33 530.70 17.01L530.70 17.01L559.01-60.87L568.46-60.87ZM577.35-25.45L577.35-25.45Q573.92-25.45 570.31-23.55Q566.69-21.65 563.10-18.34Q559.51-15.04 556.05-10.66Q552.60-6.28 549.48-1.36Q546.37 3.55 543.77 8.79Q541.17 14.03 539.30 19.01Q537.42 23.99 536.35 28.44Q535.27 32.88 535.27 36.25L535.27 36.25Q535.27 41.01 537.81 43.74Q540.34 46.46 545.74 46.46L545.74 46.46Q548.41 46.46 552.31 45.00Q556.21 43.54 560.69 39.58Q565.16 35.61 569.96 28.53Q574.75 21.46 579.26 10.22L579.26 10.22Q582.30 2.60 583.83-3.65Q585.35-9.90 585.35-14.47L585.35-14.47Q585.35-19.80 583.38-22.63Q581.41-25.45 577.35-25.45ZM633.53 49.00L633.53 49.00Q622.04 49.00 615.82 43.01Q609.60 37.01 609.60 25.14L609.60 25.14Q609.60 21.90 610.07 18.28Q610.55 14.66 611.56 10.85L611.56 10.85Q613.85 2.35 618.01-4.89Q622.17-12.12 627.56-17.39Q632.96-22.66 639.18-25.64Q645.40-28.63 651.68-28.63L651.68-28.63Q658.03-28.63 661.68-25.64Q665.33-22.66 665.33-17.27L665.33-17.27Q665.33-14.22 664.12-11.30Q662.92-8.38 660.63-5.78Q658.35-3.17 655.14-0.92Q651.94 1.33 647.94 2.98L647.94 2.98Q642.99 5.08 637.02 6.13Q631.05 7.17 623.44 7.17L623.44 7.17Q621.59 12.31 620.55 17.87Q619.50 23.42 619.50 29.20L619.50 29.20Q619.50 38.02 623.21 41.93Q626.93 45.83 634.92 45.83L634.92 45.83Q641.59 45.83 647.62 43.26Q653.65 40.69 658.79 36.50Q663.93 32.31 668.19 26.95Q672.44 21.58 675.61 16.00L675.61 16.00L678.91 10.16L680.63 11.36L677.33 17.20Q673.39 24.12 668.73 29.96Q664.06 35.80 658.57 40.02Q653.08 44.24 646.83 46.62Q640.57 49.00 633.53 49.00ZM653.46-26.09L653.46-26.09Q649.46-26.09 645.30-23.74Q641.15-21.39 637.27-17.23Q633.40-13.08 630.04-7.43Q626.67-1.78 624.20 4.89L624.20 4.89Q631.18 4.76 636.13 3.65Q641.08 2.54 644.76 0.83L644.76 0.83Q647.68-0.51 650.44-2.63Q653.21-4.76 655.33-7.49Q657.46-10.22 658.76-13.39Q660.06-16.57 660.06-20.00L660.06-20.00Q660.06-21.71 659.55-22.85Q659.05-23.99 658.16-24.72Q657.27-25.45 656.06-25.77Q654.86-26.09 653.46-26.09ZM726.33-22.92L726.33-22.92Q726.33-23.93 725.03-24.98Q723.73-26.03 721.25-26.03L721.25-26.03Q718.71-26.03 715.73-24.47Q712.75-22.92 708.94-18.98Q705.13-15.04 700.40-8.25Q695.67-1.46 689.70 9.08L689.70 9.08L686.53 14.66L674.53 47.80L665.08 47.80L692.50-27.42L701.89-27.42L690.78 3.05Q695.99-5.90 700.31-11.97Q704.62-18.03 708.30-21.74Q711.98-25.45 715.22-27.04Q718.46-28.63 721.57-28.63L721.57-28.63Q725.76-28.63 728.14-26.15Q730.52-23.68 730.52-19.68L730.52-19.68Q730.52-18.03 730.11-16.54Q729.69-15.04 728.90-13.96Q728.11-12.89 726.97-12.25Q725.82-11.62 724.43-11.62L724.43-11.62Q723.41-11.62 722.43-11.93Q721.44-12.25 720.68-12.92Q719.92-13.58 719.44-14.54Q718.97-15.49 718.97-16.76L718.97-16.76Q718.97-17.77 719.32-18.82Q719.67-19.87 720.30-20.66Q720.94-21.46 721.82-21.96Q722.71-22.47 723.79-22.47L723.79-22.47Q724.49-22.47 725.12-22.34L725.12-22.34Q725.25-22.22 725.47-22.12Q725.70-22.03 725.82-22.03L725.82-22.03Q726.33-22.03 726.33-22.92Z"></path></g></g></svg>