<svg version="1.1" xmlns="http://www.w3.org/2000/svg" xmlns:xlink="http://www.w3.org/1999/xlink" width="405.08001708984375" height="44.310272216796875"><defs></defs><g transform="translate(199.9499969482422,25.040283203125)"><rect fill="rgb(255,255,255)" stroke="none" x="0" y="0" width="405.08001708984375" height="44.310272216796875" fill-opacity="0" transform="translate(-199.9499969482422,-25.040283203125)"></rect><g transform="translate(NaN,NaN) rotate(0,0,0) translate(NaN,NaN) matrix(1,0,0,1,NaN,NaN)"><path fill="rgb(0,0,0)" fill-opacity="1" d="M-154.50 15.28L-154.50 15.28Q-155.06 15.75-156.07 16.34Q-157.08 16.92-158.43 17.44Q-159.77 17.95-161.39 18.30Q-163.01 18.66-164.77 18.66L-164.77 18.66Q-164.46 18.09-164.26 17.64Q-164.06 17.18-163.93 16.73Q-163.80 16.29-163.76 15.84Q-163.71 15.40-163.71 14.86L-163.71 14.86Q-163.71 14.25-163.78 12.74Q-163.85 11.23-163.95 9.19Q-164.04 7.15-164.16 4.76Q-164.27 2.37-164.38 0.02Q-164.48-2.32-164.57-4.43Q-164.65-6.54-164.67-8.04L-164.67-8.04Q-165.91-5.86-167.12-4.02Q-168.33-2.18-169.49-0.49Q-170.65 1.20-171.74 2.81Q-172.83 4.43-173.85 6.16Q-174.87 7.90-175.78 9.83Q-176.70 11.77-177.49 14.09L-177.49 14.09L-181.57 18.66Q-181.52 17.84-181.88 16.68Q-182.23 15.52-182.70 14.44L-182.70 14.44Q-183.23 13.17-183.91 11.84L-183.91 11.84Q-184.71 10.38-186.05 7.85L-186.05 7.85Q-187.22 5.72-189.12 2.16Q-191.02-1.41-193.85-6.70L-193.85-6.70Q-194.02-3.84-194.17-0.91Q-194.32 2.02-194.58 4.89Q-194.84 7.76-195.29 10.51Q-195.75 13.27-196.50 15.73L-196.50 15.73Q-196.10 15.87-195.61 15.94Q-195.12 16.01-194.63 16.01L-194.63 16.01Q-194.11 16.01-193.64 15.96Q-193.17 15.91-192.80 15.87L-192.80 15.87Q-192.38 15.80-191.98 15.73L-191.98 15.73Q-192.96 16.48-193.79 17.02Q-194.63 17.55-195.50 17.93Q-196.38 18.30-197.44 18.48Q-198.49 18.66-199.95 18.66L-199.95 18.66Q-199.29 18.02-198.81 16.56Q-198.33 15.09-197.99 13.07Q-197.65 11.04-197.41 8.58Q-197.18 6.12-197.00 3.53Q-196.83 0.94-196.72-1.66Q-196.62-4.27-196.50-6.60Q-196.38-8.93-196.27-10.86Q-196.15-12.80-195.96-14.04L-195.96-14.04L-192.56-17.79Q-192.75-17.41-192.75-16.95Q-192.75-16.48-192.66-16.05L-192.66-16.05Q-192.56-15.56-192.38-15.05L-192.38-15.05Q-192.26-14.74-191.74-13.71Q-191.23-12.68-190.45-11.17Q-189.68-9.66-188.68-7.75Q-187.69-5.84-186.61-3.76Q-185.53-1.69-184.43 0.43Q-183.33 2.55-182.32 4.50Q-181.31 6.45-180.47 8.12Q-179.63 9.80-179.06 10.97L-179.06 10.97Q-177.07 7.88-175.02 4.71Q-172.97 1.55-171.08-1.59Q-169.20-4.73-167.57-7.84Q-165.94-10.95-164.77-13.95L-164.77-13.95L-159.87-17.79Q-160.01-13.45-159.94-9.48Q-159.87-5.51-159.71-1.73Q-159.56 2.04-159.42 5.67Q-159.28 9.30-159.28 12.94L-159.28 12.94Q-159.28 13.99-159.41 14.66Q-159.54 15.33-159.87 15.59L-159.87 15.59Q-158.79 15.73-157.66 15.73L-157.66 15.73Q-156.73 15.73-155.89 15.62Q-155.06 15.52-154.50 15.28ZM-129.28 10.52L-129.28 10.52L-129.82 13.08Q-131.09 14.16-131.92 14.85Q-132.75 15.54-133.27 15.96L-133.27 15.96Q-133.88 16.45-134.23 16.73L-134.23 16.73Q-134.63 17.06-135.07 17.40Q-135.52 17.74-136.00 18Q-136.48 18.26-136.96 18.41Q-137.44 18.56-137.88 18.49L-137.88 18.49Q-139.27 18.35-139.27 12.89L-139.27 12.89Q-139.27 10.52-139.13 7.36L-139.13 7.36Q-139.80 8.55-140.40 9.53Q-141 10.50-141.47 11.18L-141.47 11.18Q-142.01 11.98-142.48 12.61L-142.48 12.61Q-143.53 13.95-144.54 15.01Q-145.55 16.08-146.44 16.85Q-147.33 17.63-148.04 18.06Q-148.76 18.49-149.20 18.54L-149.20 18.54Q-149.65 18.59-150.19 18.42Q-150.73 18.26-151.23 17.68Q-151.73 17.11-152.12 16.03Q-152.51 14.95-152.65 13.17L-152.65 13.17Q-152.70 12.82-152.70 12.46Q-152.70 12.09-152.70 11.74L-152.70 11.74Q-152.70 10.03-152.43 8.18Q-152.16 6.33-151.70 4.65Q-151.24 2.98-150.62 1.61Q-150 0.23-149.30-0.52L-149.30-0.52Q-148.78-1.08-148.01-1.71Q-147.23-2.34-146.33-2.96Q-145.43-3.59-144.47-4.16Q-143.51-4.73-142.64-5.18Q-141.77-5.63-141.07-5.91Q-140.37-6.19-139.95-6.26L-139.95-6.26L-139.48-6.26Q-139.24-6.26-138.91-6.26Q-138.59-6.26-138.16-6.21L-138.16-6.21Q-138-8.32-137.85-10.31Q-137.70-12.30-137.59-14.07Q-137.48-15.84-137.41-17.32Q-137.34-18.80-137.34-19.85L-137.34-19.85Q-137.34-20.79-137.50-21.27Q-137.65-21.75-137.98-22.10L-137.98-22.10Q-138.19-22.29-138.49-22.34L-138.49-22.34Q-138.75-22.38-139.15-22.29Q-139.55-22.20-140.09-21.87L-140.09-21.87Q-138.89-22.69-138.07-23.25Q-137.25-23.81-136.71-24.14L-136.71-24.14Q-136.10-24.54-135.70-24.75L-135.70-24.75Q-135.21-25.03-134.73-25.04Q-134.25-25.05-133.88-24.71Q-133.50-24.38-133.31-23.65Q-133.13-22.92-133.22-21.73L-133.22-21.73Q-133.29-21.12-133.42-19.61Q-133.55-18.09-133.73-16.00Q-133.92-13.90-134.12-11.39Q-134.32-8.88-134.53-6.26Q-134.74-3.63-134.94-1.07Q-135.14 1.50-135.28 3.69Q-135.42 5.88-135.52 7.55Q-135.61 9.21-135.61 10.01L-135.61 10.01Q-135.61 12.42-135.28 13.76Q-134.95 15.09-134.09 15.09L-134.09 15.09Q-133.48 15.09-132.54 14.37L-132.54 14.37Q-131.86 13.83-131.25 13.20L-131.25 13.20Q-130.71 12.66-130.17 11.96Q-129.63 11.27-129.28 10.52ZM-138.77 2.04L-138.40-2.91Q-139.78-3.16-140.79-3.25Q-141.80-3.33-142.48-3.33L-142.48-3.33Q-143.79-3.33-144.79-2.68Q-145.78-2.04-146.53-1.01Q-147.28 0.02-147.79 1.34Q-148.29 2.65-148.59 3.98Q-148.90 5.32-149.03 6.55Q-149.16 7.78-149.16 8.67L-149.16 8.67Q-149.16 9.05-149.12 9.64Q-149.09 10.24-148.98 10.91Q-148.88 11.58-148.69 12.26Q-148.50 12.94-148.22 13.49Q-147.94 14.04-147.54 14.38Q-147.14 14.72-146.60 14.72L-146.60 14.72Q-145.99 14.72-145.14 13.95Q-144.28 13.17-142.92 11.39L-142.92 11.39Q-142.27 10.48-141.56 9.14L-141.56 9.14Q-140.95 7.99-140.23 6.23Q-139.50 4.48-138.77 2.04L-138.77 2.04ZM-104.88-16.64L-104.88-16.64Q-105.98-15.91-106.86-15.41Q-107.74-14.91-108.54-14.58L-108.54-14.58Q-108.66-10.34-108.74-6.98Q-108.82-3.63-108.88-1.04Q-108.94 1.55-108.97 3.43Q-109.01 5.32-109.03 6.66L-109.03 6.66Q-109.10 9.77-109.08 10.92L-109.08 10.92Q-109.10 11.79-109.27 12.59L-109.27 12.59Q-109.41 13.27-109.71 14.03Q-110.02 14.79-110.55 15.33L-110.55 15.33Q-109.15 15.38-107.92 15.38Q-106.69 15.38-105.56 15.38L-105.56 15.38Q-102.35 15.38-100.27 15.28Q-98.18 15.19-96.94 15.06Q-95.70 14.93-95.18 14.82Q-94.66 14.72-94.57 14.67L-94.57 14.67Q-95.81 15.52-96.63 16.13Q-97.45 16.73-98.10 17.12Q-98.74 17.51-99.36 17.70Q-99.98 17.88-100.80 17.88L-100.80 17.88L-104.41 17.88Q-105.94 17.88-107.72 17.89Q-109.50 17.91-111.12 17.94Q-112.73 17.98-114.01 18.06Q-115.29 18.14-115.83 18.26L-115.83 18.26Q-115.17 17.70-114.63 17.04Q-114.09 16.38-113.71 15.42Q-113.32 14.46-113.11 13.11Q-112.90 11.77-112.90 9.87L-112.90 9.87L-112.90-13.80Q-113.63-13.73-114.66-13.62Q-115.69-13.50-117-13.31L-117-13.31Q-115.73-14.34-114.71-14.88Q-113.70-15.42-112.97-15.68L-112.97-15.68Q-112.13-15.96-111.47-16.01L-111.47-16.01Q-110.65-15.98-109.65-16.03Q-108.66-16.08-107.73-16.16Q-106.80-16.24-106.03-16.37Q-105.26-16.50-104.88-16.64ZM-94.52 14.63L-94.57 14.67L-94.57 14.65Q-94.55 14.63-94.52 14.63L-94.52 14.63ZM-82.20 10.78L-82.20 10.78L-82.71 12.70Q-83.11 13.10-83.68 13.70Q-84.26 14.30-84.95 14.96Q-85.64 15.63-86.39 16.29Q-87.14 16.95-87.87 17.46Q-88.59 17.98-89.26 18.27Q-89.93 18.56-90.45 18.49L-90.45 18.49Q-91.24 18.38-91.58 17.33Q-91.92 16.29-91.92 13.95L-91.92 13.95Q-91.92 13.52-91.89 12.57Q-91.85 11.63-91.79 10.36Q-91.73 9.09-91.65 7.58Q-91.57 6.07-91.48 4.54Q-91.38 3-91.28 1.51Q-91.17 0.02-91.05-1.22L-91.05-1.22Q-90.98-2.04-91.38-2.40Q-91.78-2.77-92.37-2.77L-92.37-2.77Q-92.86-2.77-93.40-2.53Q-93.94-2.30-94.38-1.90L-94.38-1.90Q-93.45-2.81-92.72-3.43Q-91.99-4.05-91.48-4.45L-91.48-4.45Q-90.87-4.90-90.45-5.20L-90.45-5.20Q-89.86-5.55-89.31-5.57Q-88.76-5.58-88.32-5.30Q-87.89-5.02-87.64-4.48Q-87.40-3.94-87.42-3.19L-87.42-3.19Q-87.45-2.67-87.53-1.54Q-87.61-0.40-87.71 1.05Q-87.82 2.51-87.95 4.13Q-88.08 5.74-88.18 7.24Q-88.29 8.74-88.37 9.96Q-88.45 11.18-88.48 11.84L-88.48 11.84Q-88.52 13.17-88.18 13.99Q-87.84 14.81-87.09 14.81L-87.09 14.81Q-86.53 14.81-85.79 14.32Q-85.05 13.83-84.33 13.17Q-83.60 12.52-83.03 11.84Q-82.45 11.16-82.20 10.78ZM-90-20.48L-86.18-23.79Q-86.13-22.64-86.24-21.74Q-86.34-20.84-86.48-20.20L-86.48-20.20Q-86.65-19.45-86.88-18.89L-86.88-18.89Q-87.16-18.33-87.75-17.67L-87.75-17.67Q-88.24-17.11-89.10-16.37Q-89.95-15.63-91.31-14.81L-91.31-14.81Q-90.87-15.70-90.61-16.70Q-90.35-17.70-90.21-18.54L-90.21-18.54Q-90.05-19.52-90-20.48L-90-20.48ZM-59.06 10.15L-59.06 11.98Q-59.27 12.30-59.65 12.76Q-60.02 13.22-60.40 13.66L-60.40 13.66Q-60.82 14.18-61.31 14.72L-61.31 14.72Q-61.92 15.47-62.63 16.17Q-63.33 16.88-64.02 17.43Q-64.71 17.98-65.37 18.30Q-66.02 18.63-66.54 18.61L-66.54 18.61Q-67.52 18.56-67.90 17.40Q-68.27 16.24-68.27 14.04L-68.27 14.04Q-68.27 12.87-68.20 11.51Q-68.13 10.15-67.99 8.46L-67.99 8.46Q-68.51 9.28-68.98 9.96Q-69.45 10.64-69.82 11.16L-69.82 11.16Q-70.24 11.77-70.66 12.26L-70.66 12.26Q-71.91 13.78-73.07 14.95Q-74.23 16.13-75.20 16.92Q-76.17 17.72-76.91 18.14Q-77.65 18.56-78.07 18.61L-78.07 18.61Q-78.49 18.66-79.09 18.33Q-79.69 18-80.23 17.06Q-80.77 16.13-81.15 14.44Q-81.54 12.75-81.52 10.05L-81.52 10.05Q-81.49 7.36-80.94 5.31Q-80.39 3.26-79.51 1.72Q-78.63 0.19-77.55-0.93Q-76.48-2.04-75.42-2.86L-75.42-2.86Q-73.24-4.52-71.24-5.52Q-69.23-6.52-67.31-6.56L-67.31-6.56Q-66.68-6.59-66.07-6.54L-66.07-6.54Q-65.53-6.49-64.91-6.39Q-64.29-6.28-63.73-6.07L-63.73-6.07L-63.05-6.61Q-63.19-5.95-63.34-4.83Q-63.49-3.70-63.63-2.30Q-63.77-0.89-63.91 0.70Q-64.05 2.30-64.16 3.90Q-64.27 5.51-64.36 7.02Q-64.45 8.53-64.51 9.77Q-64.57 11.02-64.58 11.88Q-64.59 12.75-64.57 13.08L-64.57 13.08Q-64.45 14.41-63.95 14.91Q-63.45 15.40-62.55 14.81L-62.55 14.81Q-62.20 14.53-61.69 13.92L-61.69 13.92Q-61.24 13.41-60.60 12.50Q-59.95 11.60-59.06 10.15L-59.06 10.15ZM-67.55 2.55L-67.08-2.95Q-69.30-3.23-70.73-3.23L-70.73-3.23Q-72.26-3.23-73.38-2.74Q-74.51-2.25-75.30-1.42Q-76.10-0.59-76.62 0.50Q-77.13 1.59-77.43 2.81Q-77.72 4.03-77.82 5.30Q-77.93 6.56-77.93 7.71L-77.93 7.71Q-77.93 8.11-77.88 8.79Q-77.84 9.47-77.71 10.24Q-77.58 11.02-77.38 11.81Q-77.18 12.61-76.86 13.25Q-76.55 13.90-76.13 14.31Q-75.70 14.72-75.14 14.72L-75.14 14.72Q-74.53 14.72-73.65 14.05Q-72.77 13.38-71.53 11.79L-71.53 11.79Q-70.80 10.80-70.08 9.42L-70.08 9.42Q-69.47 8.25-68.78 6.54Q-68.09 4.83-67.55 2.55L-67.55 2.55ZM-51.70-22.59L-51.70-22.59Q-51.66-22.15-51.66-21.42Q-51.66-20.70-51.66-19.71L-51.66-19.71Q-51.66-18.05-51.70-15.83Q-51.75-13.62-51.83-11.12Q-51.91-8.63-52.04-6.01Q-52.17-3.40-52.34-0.94L-52.34-0.94L-52.57 2.18Q-52.13 1.36-51.73 0.74Q-51.33 0.12-51-0.33L-51-0.33Q-50.63-0.84-50.32-1.22L-50.32-1.22Q-49.45-2.16-48.49-3.06Q-47.53-3.96-46.56-4.68Q-45.59-5.39-44.63-5.82Q-43.66-6.26-42.82-6.26L-42.82-6.26Q-42.14-6.26-41.60-5.93Q-41.06-5.60-40.70-5.09Q-40.34-4.57-40.14-3.95Q-39.94-3.33-39.94-2.77L-39.94-2.77Q-39.94-1.22-40.68 0.13Q-41.41 1.48-42.53 2.63Q-43.64 3.77-44.93 4.69Q-46.22 5.60-47.34 6.26L-47.34 6.26Q-46.62 7.24-45.94 8.19Q-45.26 9.14-44.72 9.89L-44.72 9.89Q-44.11 10.78-43.55 11.60L-43.55 11.60Q-42.98 12.35-42.52 13.04Q-42.05 13.73-41.58 14.25Q-41.11 14.77-40.63 15.07Q-40.15 15.38-39.56 15.38L-39.56 15.38Q-39.21 15.38-38.80 15.26Q-38.39 15.14-37.92 14.81L-37.92 14.81Q-38.53 15.38-39.20 16.03Q-39.87 16.69-40.56 17.23Q-41.25 17.77-41.95 18.13Q-42.66 18.49-43.36 18.49L-43.36 18.49Q-44.11 18.49-44.75 18.08Q-45.40 17.67-45.75 17.06L-45.75 17.06Q-45.94 16.78-46.32 16.07Q-46.71 15.35-47.21 14.45Q-47.72 13.55-48.29 12.54Q-48.87 11.53-49.44 10.64Q-50.02 9.75-50.53 9.08Q-51.05 8.41-51.42 8.18L-51.42 8.18Q-50.06 7.31-48.77 6.45Q-47.48 5.58-46.48 4.57Q-45.47 3.56-44.85 2.38Q-44.23 1.20-44.23-0.30L-44.23-0.30Q-44.23-1.50-44.73-2.27Q-45.23-3.05-46.29-3L-46.29-3Q-47.77-2.93-48.75-1.84Q-49.73-0.75-50.46 0.98L-50.46 0.98Q-50.72 1.62-51.09 2.79L-51.09 2.79Q-51.42 3.80-51.93 5.46Q-52.43 7.13-53.11 9.68L-53.11 9.68L-53.48 16.34L-57.23 19.27Q-56.86 14.74-56.50 10.42Q-56.13 6.09-55.85 1.91Q-55.57-2.27-55.39-6.36Q-55.22-10.45-55.22-14.53L-55.22-14.53Q-55.22-15.98-55.28-17.20Q-55.34-18.42-55.44-19.35Q-55.55-20.27-55.72-20.88Q-55.90-21.49-56.13-21.73L-56.13-21.73Q-56.46-21.96-56.93-21.96L-56.93-21.96Q-57.33-21.96-57.93-21.74Q-58.52-21.52-59.34-20.81L-59.34-20.81Q-58.85-21.23-58.14-21.94Q-57.42-22.64-56.61-23.31Q-55.80-23.98-55.01-24.46Q-54.21-24.94-53.58-24.94L-53.58-24.94Q-52.90-24.94-52.36-24.40Q-51.82-23.86-51.70-22.59ZM-37.83 14.77L-37.83 14.77Q-37.88 14.81-37.92 14.81L-37.92 14.81Q-37.88 14.81-37.83 14.77ZM-19.08 0.02L-19.08 0.02Q-19.01 1.85-19.20 3.61Q-19.38 5.37-19.75 6.90Q-20.11 8.44-20.64 9.69Q-21.16 10.95-21.77 11.74L-21.77 11.74Q-22.17 12.28-22.89 13.00Q-23.60 13.71-24.49 14.47Q-25.38 15.23-26.39 15.98Q-27.40 16.73-28.38 17.31Q-29.37 17.88-30.27 18.25Q-31.17 18.61-31.85 18.61L-31.85 18.61Q-32.65 18.61-33.23 18.20Q-33.82 17.79-34.24 17.12Q-34.66 16.45-34.95 15.62Q-35.23 14.79-35.39 13.96Q-35.55 13.13-35.61 12.36Q-35.67 11.60-35.67 11.06L-35.67 11.06Q-35.67 9-35.30 6.97Q-34.92 4.95-34.14 3.12Q-33.35 1.29-32.16-0.27Q-30.96-1.83-29.30-2.95L-29.30-2.95Q-28.22-3.68-27.35-4.28Q-26.48-4.88-25.76-5.27Q-25.03-5.67-24.43-5.89Q-23.84-6.12-23.30-6.12L-23.30-6.12Q-22.78-6.12-22.09-5.84Q-21.40-5.55-20.75-4.86Q-20.11-4.17-19.64-2.99Q-19.17-1.80-19.08 0.02ZM-22.78 3.91L-22.78 3.91Q-22.78 2.93-22.92 1.66Q-23.06 0.40-23.48-0.70Q-23.91-1.80-24.67-2.57Q-25.43-3.33-26.70-3.33L-26.70-3.33Q-27.21-3.33-27.76-3.11Q-28.31-2.88-28.78-2.41L-28.78-2.41Q-29.72-1.48-30.29-0.27Q-30.87 0.94-31.20 2.27Q-31.52 3.61-31.64 4.97Q-31.76 6.33-31.76 7.55L-31.76 7.55Q-31.76 8.18-31.73 9.01Q-31.71 9.84-31.59 10.72Q-31.48 11.60-31.25 12.47Q-31.03 13.34-30.64 14.00Q-30.26 14.67-29.67 15.09Q-29.09 15.52-28.24 15.52L-28.24 15.52Q-27.12 15.52-26.27 14.87Q-25.43 14.23-24.82 13.20Q-24.21 12.16-23.82 10.88Q-23.44 9.59-23.20 8.30Q-22.97 7.01-22.88 5.85Q-22.78 4.69-22.78 3.91ZM-1.69 10.29L-1.69 10.29L-2.18 12.70Q-2.72 13.15-3.43 13.82Q-4.15 14.48-4.98 15.21Q-5.81 15.94-6.70 16.63Q-7.59 17.32-8.48 17.80Q-9.38 18.28-10.23 18.48Q-11.09 18.68-11.81 18.40L-11.81 18.40Q-12.28 18.23-12.62 17.91Q-12.96 17.58-13.18 16.97Q-13.41 16.36-13.52 15.41Q-13.64 14.46-13.64 13.08L-13.64 13.08Q-13.64 8.91-13.46 4.98Q-13.29 1.05-13.03-2.81L-13.03-2.81Q-14.02-2.74-14.96-2.57Q-15.91-2.39-16.43-1.99L-16.43-1.99Q-14.95-3.30-14.11-4.42Q-13.27-5.53-12.82-6.40L-12.82-6.40L-12.54-10.69L-8.51-14.04L-9-5.65Q-8.48-5.60-8.04-5.60Q-7.59-5.60-7.17-5.60L-7.17-5.60Q-5.13-5.60-3.39-5.96Q-1.64-6.33-0.02-6.94L-0.02-6.94Q-1.52-5.74-2.89-4.99Q-4.27-4.24-5.44-3.79Q-6.61-3.33-7.57-3.13Q-8.53-2.93-9.19-2.86L-9.19-2.86Q-9.42 1.36-9.55 3.97Q-9.68 6.59-9.75 8.02L-9.75 8.02Q-9.84 9.70-9.84 10.48L-9.84 10.48Q-9.91 11.63-9.70 12.52Q-9.49 13.41-9.06 13.99Q-8.63 14.58-8.00 14.81Q-7.38 15.05-6.63 14.86L-6.63 14.86Q-6.05 14.67-5.27 14.11L-5.27 14.11Q-4.62 13.64-3.71 12.74Q-2.81 11.84-1.69 10.29ZM-16.57-1.90L-16.43-1.99L-16.57-1.90ZM57.77 15.28L57.77 15.28Q57.21 15.75 56.20 16.34Q55.20 16.92 53.85 17.44Q52.50 17.95 50.88 18.30Q49.27 18.66 47.51 18.66L47.51 18.66Q47.81 18.09 48.01 17.64Q48.21 17.18 48.34 16.73Q48.47 16.29 48.52 15.84Q48.56 15.40 48.56 14.86L48.56 14.86Q48.56 14.25 48.49 12.74Q48.42 11.23 48.33 9.19Q48.23 7.15 48.12 4.76Q48 2.37 47.89 0.02Q47.79-2.32 47.71-4.43Q47.63-6.54 47.60-8.04L47.60-8.04Q46.36-5.86 45.15-4.02Q43.95-2.18 42.79-0.49Q41.63 1.20 40.54 2.81Q39.45 4.43 38.43 6.16Q37.41 7.90 36.49 9.83Q35.58 11.77 34.78 14.09L34.78 14.09L30.70 18.66Q30.75 17.84 30.40 16.68Q30.05 15.52 29.58 14.44L29.58 14.44Q29.04 13.17 28.36 11.84L28.36 11.84Q27.56 10.38 26.23 7.85L26.23 7.85Q25.05 5.72 23.16 2.16Q21.26-1.41 18.42-6.70L18.42-6.70Q18.26-3.84 18.11-0.91Q17.95 2.02 17.70 4.89Q17.44 7.76 16.98 10.51Q16.52 13.27 15.77 15.73L15.77 15.73Q16.17 15.87 16.66 15.94Q17.16 16.01 17.65 16.01L17.65 16.01Q18.16 16.01 18.63 15.96Q19.10 15.91 19.48 15.87L19.48 15.87Q19.90 15.80 20.30 15.73L20.30 15.73Q19.31 16.48 18.48 17.02Q17.65 17.55 16.77 17.93Q15.89 18.30 14.84 18.48Q13.78 18.66 12.33 18.66L12.33 18.66Q12.98 18.02 13.46 16.56Q13.95 15.09 14.29 13.07Q14.63 11.04 14.86 8.58Q15.09 6.12 15.27 3.53Q15.45 0.94 15.55-1.66Q15.66-4.27 15.77-6.60Q15.89-8.93 16.01-10.86Q16.13-12.80 16.31-14.04L16.31-14.04L19.71-17.79Q19.52-17.41 19.52-16.95Q19.52-16.48 19.62-16.05L19.62-16.05Q19.71-15.56 19.90-15.05L19.90-15.05Q20.02-14.74 20.53-13.71Q21.05-12.68 21.82-11.17Q22.59-9.66 23.59-7.75Q24.59-5.84 25.66-3.76Q26.74-1.69 27.84 0.43Q28.95 2.55 29.95 4.50Q30.96 6.45 31.80 8.12Q32.65 9.80 33.21 10.97L33.21 10.97Q35.20 7.88 37.25 4.71Q39.30 1.55 41.19-1.59Q43.08-4.73 44.71-7.84Q46.34-10.95 47.51-13.95L47.51-13.95L52.41-17.79Q52.27-13.45 52.34-9.48Q52.41-5.51 52.56-1.73Q52.71 2.04 52.85 5.67Q52.99 9.30 52.99 12.94L52.99 12.94Q52.99 13.99 52.86 14.66Q52.73 15.33 52.41 15.59L52.41 15.59Q53.48 15.73 54.61 15.73L54.61 15.73Q55.55 15.73 56.38 15.62Q57.21 15.52 57.77 15.28ZM82.13 10.15L82.13 11.98Q81.91 12.30 81.54 12.76Q81.16 13.22 80.79 13.66L80.79 13.66Q80.37 14.18 79.88 14.72L79.88 14.72Q79.27 15.47 78.56 16.17Q77.86 16.88 77.17 17.43Q76.48 17.98 75.82 18.30Q75.16 18.63 74.65 18.61L74.65 18.61Q73.66 18.56 73.29 17.40Q72.91 16.24 72.91 14.04L72.91 14.04Q72.91 12.87 72.98 11.51Q73.05 10.15 73.20 8.46L73.20 8.46Q72.68 9.28 72.21 9.96Q71.74 10.64 71.37 11.16L71.37 11.16Q70.95 11.77 70.52 12.26L70.52 12.26Q69.28 13.78 68.12 14.95Q66.96 16.13 65.99 16.92Q65.02 17.72 64.28 18.14Q63.54 18.56 63.12 18.61L63.12 18.61Q62.70 18.66 62.10 18.33Q61.50 18 60.96 17.06Q60.42 16.13 60.04 14.44Q59.65 12.75 59.67 10.05L59.67 10.05Q59.70 7.36 60.25 5.31Q60.80 3.26 61.68 1.72Q62.55 0.19 63.63-0.93Q64.71-2.04 65.77-2.86L65.77-2.86Q67.95-4.52 69.95-5.52Q71.95-6.52 73.88-6.56L73.88-6.56Q74.51-6.59 75.12-6.54L75.12-6.54Q75.66-6.49 76.28-6.39Q76.90-6.28 77.46-6.07L77.46-6.07L78.14-6.61Q78-5.95 77.85-4.83Q77.70-3.70 77.55-2.30Q77.41-0.89 77.27 0.70Q77.13 2.30 77.03 3.90Q76.92 5.51 76.83 7.02Q76.73 8.53 76.68 9.77Q76.62 11.02 76.61 11.88Q76.59 12.75 76.62 13.08L76.62 13.08Q76.73 14.41 77.24 14.91Q77.74 15.40 78.63 14.81L78.63 14.81Q78.98 14.53 79.50 13.92L79.50 13.92Q79.95 13.41 80.59 12.50Q81.23 11.60 82.13 10.15L82.13 10.15ZM73.64 2.55L74.11-2.95Q71.88-3.23 70.45-3.23L70.45-3.23Q68.93-3.23 67.80-2.74Q66.68-2.25 65.88-1.42Q65.09-0.59 64.57 0.50Q64.05 1.59 63.76 2.81Q63.47 4.03 63.36 5.30Q63.26 6.56 63.26 7.71L63.26 7.71Q63.26 8.11 63.30 8.79Q63.35 9.47 63.48 10.24Q63.61 11.02 63.81 11.81Q64.01 12.61 64.32 13.25Q64.64 13.90 65.06 14.31Q65.48 14.72 66.05 14.72L66.05 14.72Q66.66 14.72 67.54 14.05Q68.41 13.38 69.66 11.79L69.66 11.79Q70.38 10.80 71.11 9.42L71.11 9.42Q71.72 8.25 72.41 6.54Q73.10 4.83 73.64 2.55L73.64 2.55ZM97.41 10.29L97.41 10.29L96.91 12.70Q96.38 13.15 95.66 13.82Q94.95 14.48 94.11 15.21Q93.28 15.94 92.39 16.63Q91.50 17.32 90.61 17.80Q89.72 18.28 88.86 18.48Q88.01 18.68 87.28 18.40L87.28 18.40Q86.81 18.23 86.47 17.91Q86.13 17.58 85.91 16.97Q85.69 16.36 85.57 15.41Q85.45 14.46 85.45 13.08L85.45 13.08Q85.45 8.91 85.63 4.98Q85.80 1.05 86.06-2.81L86.06-2.81Q85.08-2.74 84.13-2.57Q83.18-2.39 82.66-1.99L82.66-1.99Q84.14-3.30 84.98-4.42Q85.83-5.53 86.27-6.40L86.27-6.40L86.55-10.69L90.59-14.04L90.09-5.65Q90.61-5.60 91.05-5.60Q91.50-5.60 91.92-5.60L91.92-5.60Q93.96-5.60 95.71-5.96Q97.45-6.33 99.07-6.94L99.07-6.94Q97.57-5.74 96.20-4.99Q94.83-4.24 93.66-3.79Q92.48-3.33 91.52-3.13Q90.56-2.93 89.91-2.86L89.91-2.86Q89.67 1.36 89.54 3.97Q89.41 6.59 89.34 8.02L89.34 8.02Q89.25 9.70 89.25 10.48L89.25 10.48Q89.18 11.63 89.39 12.52Q89.60 13.41 90.04 13.99Q90.47 14.58 91.09 14.81Q91.71 15.05 92.46 14.86L92.46 14.86Q93.05 14.67 93.82 14.11L93.82 14.11Q94.48 13.64 95.38 12.74Q96.28 11.84 97.41 10.29ZM82.52-1.90L82.66-1.99L82.52-1.90ZM125.11 10.05L125.11 12.02Q123.98 13.01 123.26 13.68Q122.53 14.34 122.06 14.74L122.06 14.74Q121.52 15.21 121.22 15.52L121.22 15.52Q120.87 15.87 120.27 16.39Q119.67 16.92 118.98 17.41Q118.29 17.91 117.57 18.25Q116.86 18.59 116.27 18.54L116.27 18.54Q115.31 18.49 114.88 16.84Q114.45 15.19 114.45 12.35L114.45 12.35L114.45 10.10Q113.63 11.20 112.89 12.08Q112.15 12.96 111.59 13.57L111.59 13.57Q110.93 14.30 110.37 14.86L110.37 14.86Q109.20 16.01 108.19 16.77Q107.18 17.53 106.34 17.95Q105.49 18.38 104.84 18.50Q104.18 18.63 103.69 18.54L103.69 18.54Q103.22 18.45 102.82 18.09Q102.42 17.74 102.14 16.99Q101.86 16.24 101.71 15.04Q101.55 13.83 101.58 12.02L101.58 12.02Q101.60 10.22 101.68 8.43Q101.77 6.63 101.85 5.02Q101.93 3.40 102.04 2.05Q102.14 0.70 102.21-0.21L102.21-0.21Q102.28-1.38 101.96-2.10Q101.65-2.81 100.85-2.81L100.85-2.81Q100.38-2.81 99.80-2.54Q99.21-2.27 98.46-1.66L98.46-1.66Q99.02-2.20 99.77-2.96Q100.52-3.73 101.36-4.43Q102.19-5.13 103.03-5.63Q103.88-6.12 104.60-6.12L104.60-6.12Q105.16-6.12 105.46-5.82Q105.75-5.53 105.88-5.11Q106.01-4.69 106.02-4.21Q106.03-3.73 106.03-3.38L106.03-3.38Q106.03-1.69 105.91-0.04Q105.80 1.62 105.66 3.25Q105.52 4.88 105.40 6.49Q105.28 8.11 105.28 9.73L105.28 9.73Q105.28 10.85 105.39 11.89Q105.49 12.94 105.77 13.71Q106.05 14.48 106.54 14.92Q107.02 15.35 107.77 15.28L107.77 15.28Q108.75 15.19 109.72 14.46Q110.70 13.73 111.56 12.57Q112.43 11.41 113.13 9.94Q113.84 8.46 114.26 6.89L114.26 6.89Q114.30 6.70 114.38 6.45L114.38 6.45Q114.42 6.23 114.50 5.98Q114.59 5.72 114.68 5.39L114.68 5.39Q114.82 3.12 115.07 0.91Q115.31-1.29 115.64-3.49L115.64-3.49L120.21-6.75Q119.34-2.46 118.84 1.48Q118.34 5.41 118.34 9.33L118.34 9.33Q118.34 11.18 118.51 12.33Q118.69 13.48 119.00 14.09Q119.32 14.70 119.77 14.84Q120.21 14.98 120.73 14.81L120.73 14.81Q121.20 14.60 121.83 14.02L121.83 14.02Q122.37 13.52 123.19 12.59Q124.01 11.65 125.11 10.05L125.11 10.05ZM98.32-1.57L98.46-1.66L98.32-1.57ZM128.70 18.84L128.70 18.84Q128.11 18.84 127.50 18.79Q126.89 18.73 126.21 18.61L126.21 18.61Q126.52 13.90 126.87 9.45Q127.22 4.99 127.51 0.70Q127.80-3.59 127.99-7.73Q128.18-11.88 128.18-16.01L128.18-16.01Q128.18-18.70 127.85-20.10Q127.52-21.49 126.77-21.63L126.77-21.63Q126.38-21.70 125.95-21.66L125.95-21.66Q125.58-21.61 125.13-21.43Q124.69-21.26 124.24-20.86L124.24-20.86Q125.30-21.91 126.04-22.62Q126.77-23.32 127.24-23.74L127.24-23.74Q127.80-24.23 128.18-24.52L128.18-24.52Q128.51-24.77 128.87-24.88Q129.23-24.98 129.56-24.98L129.56-24.98Q130.15-24.98 130.63-24.60Q131.11-24.21 131.34-23.30L131.34-23.30Q131.44-22.95 131.50-22.35Q131.55-21.75 131.59-20.95Q131.63-20.16 131.65-19.18Q131.67-18.21 131.67-17.16L131.67-17.16Q131.67-12.30 131.40-7.65Q131.13-3 130.76 1.62L130.76 1.62Q131.41 0.54 132.06-0.35Q132.70-1.24 133.22-1.85L133.22-1.85Q133.83-2.58 134.37-3.14L134.37-3.14Q136.03-4.76 137.51-5.51Q138.98-6.26 140.11-6.26L140.11-6.26Q140.91-6.26 141.48-5.82Q142.05-5.39 142.45-4.71Q142.85-4.03 143.11-3.18Q143.37-2.32 143.50-1.45Q143.63-0.59 143.67 0.20Q143.72 0.98 143.72 1.50L143.72 1.50Q143.72 3.56 143.23 5.65Q142.73 7.73 141.80 9.66Q140.86 11.58 139.54 13.25Q138.21 14.93 136.54 16.17Q134.86 17.41 132.89 18.13Q130.92 18.84 128.70 18.84ZM130.13 8.95L129.56 15.19Q130.48 15.54 131.25 15.67Q132.02 15.80 132.59 15.84L132.59 15.84Q133.24 15.89 133.78 15.82L133.78 15.82Q135.82 15.33 137.04 14.18Q138.26 13.03 138.89 11.51Q139.52 9.98 139.72 8.24Q139.92 6.49 139.92 4.78L139.92 4.78Q139.92 4.22 139.89 3.41Q139.85 2.60 139.73 1.70Q139.62 0.80 139.41-0.09Q139.20-0.98 138.84-1.69Q138.49-2.39 137.98-2.84Q137.46-3.28 136.76-3.28L136.76-3.28Q136.29-3.28 135.84-3.07Q135.40-2.86 135.07-2.53L135.07-2.53Q134.32-1.80 133.63-0.61Q132.94 0.59 132.32 2.11Q131.70 3.63 131.14 5.38Q130.59 7.13 130.13 8.95L130.13 8.95ZM150.30 18.84L150.30 18.84Q149.72 18.84 149.11 18.79Q148.50 18.73 147.82 18.61L147.82 18.61Q148.13 13.90 148.48 9.45Q148.83 4.99 149.12 0.70Q149.41-3.59 149.60-7.73Q149.79-11.88 149.79-16.01L149.79-16.01Q149.79-18.70 149.46-20.10Q149.13-21.49 148.38-21.63L148.38-21.63Q147.98-21.70 147.56-21.66L147.56-21.66Q147.19-21.61 146.74-21.43Q146.30-21.26 145.85-20.86L145.85-20.86Q146.91-21.91 147.64-22.62Q148.38-23.32 148.85-23.74L148.85-23.74Q149.41-24.23 149.79-24.52L149.79-24.52Q150.12-24.77 150.48-24.88Q150.84-24.98 151.17-24.98L151.17-24.98Q151.76-24.98 152.24-24.60Q152.72-24.21 152.95-23.30L152.95-23.30Q153.05-22.95 153.11-22.35Q153.16-21.75 153.20-20.95Q153.23-20.16 153.26-19.18Q153.28-18.21 153.28-17.16L153.28-17.16Q153.28-12.30 153.01-7.65Q152.74-3 152.37 1.62L152.37 1.62Q153.02 0.54 153.67-0.35Q154.31-1.24 154.83-1.85L154.83-1.85Q155.44-2.58 155.98-3.14L155.98-3.14Q157.64-4.76 159.12-5.51Q160.59-6.26 161.72-6.26L161.72-6.26Q162.52-6.26 163.09-5.82Q163.66-5.39 164.06-4.71Q164.46-4.03 164.72-3.18Q164.98-2.32 165.11-1.45Q165.23-0.59 165.28 0.20Q165.33 0.98 165.33 1.50L165.33 1.50Q165.33 3.56 164.84 5.65Q164.34 7.73 163.41 9.66Q162.47 11.58 161.14 13.25Q159.82 14.93 158.14 16.17Q156.47 17.41 154.50 18.13Q152.53 18.84 150.30 18.84ZM151.73 8.95L151.17 15.19Q152.09 15.54 152.86 15.67Q153.63 15.80 154.20 15.84L154.20 15.84Q154.85 15.89 155.39 15.82L155.39 15.82Q157.43 15.33 158.65 14.18Q159.87 13.03 160.50 11.51Q161.13 9.98 161.33 8.24Q161.53 6.49 161.53 4.78L161.53 4.78Q161.53 4.22 161.50 3.41Q161.46 2.60 161.34 1.70Q161.23 0.80 161.02-0.09Q160.80-0.98 160.45-1.69Q160.10-2.39 159.59-2.84Q159.07-3.28 158.37-3.28L158.37-3.28Q157.90-3.28 157.45-3.07Q157.01-2.86 156.68-2.53L156.68-2.53Q155.93-1.80 155.24-0.61Q154.55 0.59 153.93 2.11Q153.30 3.63 152.75 5.38Q152.20 7.13 151.73 8.95L151.73 8.95ZM181.85 8.67L181.85 11.25Q180.61 12.66 179.57 13.72Q178.52 14.79 177.73 15.52L177.73 15.52Q176.79 16.36 176.04 16.97L176.04 16.97Q173.98 18.61 172.45 18.61L172.45 18.61Q171.59 18.61 170.96 18.15Q170.34 17.70 169.90 16.97Q169.45 16.24 169.17 15.33Q168.89 14.41 168.74 13.49Q168.59 12.56 168.53 11.72Q168.47 10.88 168.47 10.29L168.47 10.29Q168.47 8.72 168.83 6.89Q169.20 5.06 169.89 3.25Q170.58 1.43 171.59-0.25Q172.59-1.92 173.89-3.22Q175.20-4.52 176.75-5.30Q178.31-6.07 180.12-6.07L180.12-6.07Q180.61-6.07 180.94-5.89Q181.27-5.72 181.48-5.41Q181.69-5.11 181.77-4.73Q181.85-4.36 181.85-3.96L181.85-3.96Q181.85-2.93 181.38-1.90Q180.91-0.87 180.13 0.13Q179.34 1.13 178.34 2.07Q177.33 3.02 176.24 3.88Q175.15 4.73 174.07 5.48Q172.99 6.23 172.10 6.84L172.10 6.84L172.10 7.36Q172.10 7.95 172.16 8.78Q172.22 9.61 172.37 10.51Q172.52 11.41 172.78 12.30Q173.04 13.20 173.44 13.90Q173.84 14.60 174.39 15.04Q174.94 15.47 175.66 15.47L175.66 15.47Q175.99 15.47 176.34 15.36Q176.70 15.26 177.05 15L177.05 15Q177.66 14.51 178.43 13.64L178.43 13.64Q179.09 12.89 179.95 11.70Q180.82 10.50 181.85 8.67L181.85 8.67ZM177.49-2.58L177.49-2.58Q177.21-2.91 176.77-3Q176.32-3.09 175.82-2.95Q175.31-2.81 174.83-2.41Q174.35-2.02 174.02-1.36L174.02-1.36Q173.55-0.42 172.99 1.32Q172.43 3.07 172.20 5.34L172.20 5.34Q172.95 4.90 173.74 4.31Q174.54 3.73 175.28 3.07Q176.02 2.41 176.61 1.70Q177.21 0.98 177.55 0.25Q177.89-0.49 177.91-1.21Q177.94-1.92 177.49-2.58ZM191.74 5.02L191.74 5.06Q191.63 6.40 191.53 8.06L191.53 8.06Q191.44 9.49 191.32 11.45Q191.20 13.41 191.06 15.77L191.06 15.77L187.13 19.13Q187.64 14.34 188.03 10.01Q188.41 5.67 188.41 1.45L188.41 1.45Q188.41-0.68 187.83-1.70Q187.24-2.72 186.26-2.72L186.26-2.72Q185.23-2.72 183.87-1.66L183.87-1.66Q184.17-1.95 184.61-2.38Q185.04-2.81 185.54-3.30Q186.05-3.80 186.60-4.29Q187.15-4.78 187.68-5.18Q188.20-5.58 188.70-5.82Q189.19-6.07 189.56-6.07L189.56-6.07Q190.48-6.07 190.97-5.55Q191.46-5.04 191.70-4.29Q191.93-3.54 191.98-2.72Q192.02-1.90 192.02-1.31L192.02-1.31L192.02-0.21Q193.27-2.27 194.96-3.84Q196.66-5.41 198.94-6.07L198.94-6.07Q199.43-6.21 199.90-6.15Q200.37-6.09 200.84-5.96Q201.30-5.84 201.83-5.70Q202.36-5.55 202.97-5.55L202.97-5.55Q203.44-5.55 203.95-5.67Q204.47-5.79 205.13-6.07L205.13-6.07Q204.45-5.39 203.79-4.73Q203.13-4.08 202.49-3.55Q201.84-3.02 201.22-2.66Q200.60-2.30 200.04-2.23L200.04-2.23Q199.43-2.16 198.88-2.31Q198.33-2.46 197.75-2.64Q197.18-2.81 196.55-2.89Q195.91-2.98 195.19-2.77L195.19-2.77Q194.70-2.60 194.21-1.86Q193.73-1.13 193.28-0.04Q192.82 1.05 192.43 2.38Q192.05 3.70 191.74 5.02L191.74 5.02Z"></path></g></g></svg>